<?xml version="1.0" encoding="UTF-8"?>
<svg width="807px" height="305px" viewBox="0 0 807 305" version="1.1" xmlns="http://www.w3.org/2000/svg" xmlns:xlink="http://www.w3.org/1999/xlink">
    <!-- Generator: Sketch 43.2 (39069) - http://www.bohemiancoding.com/sketch -->
    <title>Group</title>
    <desc>Created with Sketch.</desc>
    <defs></defs>
    <g id="Page-1" stroke="none" stroke-width="1" fill="none" fill-rule="evenodd">
        <g id="Group" transform="translate(1.000000, 1.000000)">
            <g id="user-solid" transform="translate(705.175151, 112.634122)" fill-rule="nonzero" fill="#000000">
                <path d="M19.2119595,21.9565251 C25.2757342,21.9565251 30.190222,17.0420373 30.190222,10.9782626 C30.190222,4.91448785 25.2757342,0 19.2119595,0 C13.1481848,0 8.23369692,4.91448785 8.23369692,10.9782626 C8.23369692,17.0420373 13.1481848,21.9565251 19.2119595,21.9565251 Z M26.8967433,24.7010907 L25.4644231,24.7010907 C23.5603807,25.575921 21.4419191,26.0733736 19.2119595,26.0733736 C16.9819999,26.0733736 14.8721151,25.575921 12.9594959,24.7010907 L11.5271757,24.7010907 C5.16321411,24.7010907 0,29.8643049 0,36.2282664 L0,39.7962018 C0,42.0690452 1.84400504,43.9130502 4.11684846,43.9130502 L34.3070705,43.9130502 C36.5799139,43.9130502 38.4239189,42.0690452 38.4239189,39.7962018 L38.4239189,36.2282664 C38.4239189,29.8643049 33.2607048,24.7010907 26.8967433,24.7010907 Z" id="Shape"></path>
            </g>
            <g id="percent-solid" transform="translate(195.000000, 179.000000)" fill-rule="nonzero" fill="#000000">
                <path d="M4.96160438,9.98023869 C7.70377679,9.98023869 9.92320875,7.74805137 9.92320875,4.99011934 C9.92320875,2.23218731 7.70377679,0 4.96160438,0 C2.21943196,0 0,2.23218731 0,4.99011934 C0,7.74805137 2.21943196,9.98023869 4.96160438,9.98023869 Z M4.96160438,2.85149677 C6.13555541,2.85149677 7.08800625,3.80942146 7.08800625,4.99011934 C7.08800625,6.17081722 6.13555541,7.12874192 4.96160438,7.12874192 C3.78765334,7.12874192 2.8352025,6.17081722 2.8352025,4.99011934 C2.8352025,3.80942146 3.78765334,2.85149677 4.96160438,2.85149677 Z M14.8848131,12.8317355 C12.1426407,12.8317355 9.92320875,15.0639228 9.92320875,17.8218548 C9.92320875,20.5797868 12.1426407,22.8119741 14.8848131,22.8119741 C17.6269855,22.8119741 19.8464175,20.5797868 19.8464175,17.8218548 C19.8464175,15.0639228 17.6269855,12.8317355 14.8848131,12.8317355 Z M14.8848131,19.9604774 C13.7108621,19.9604774 12.7584113,19.0025527 12.7584113,17.8218548 C12.7584113,16.6411569 13.7108621,15.6832322 14.8848131,15.6832322 C16.0587642,15.6832322 17.011215,16.6411569 17.011215,17.8218548 C17.011215,19.0025527 16.0587642,19.9604774 14.8848131,19.9604774 Z M17.3789053,0.0089109274 L18.7787866,0.0044554637 C19.6382073,-8.04044331e-16 20.1476578,0.97574655 19.6514973,1.68862074 L3.42882302,22.3486059 C3.23031494,22.6333372 2.90630727,22.8029225 2.56054226,22.8030632 L1.08092095,22.8075187 C0.217070191,22.8075187 -0.287950254,21.8317721 0.208210184,21.1233534 L16.5106246,0.463368225 C16.7099747,0.178218548 17.033365,0.0089109274 17.3789053,0.0089109274 Z" id="Shape"></path>
            </g>
            <g id="file-contract-solid" transform="translate(589.000000, 98.000000)" fill-rule="nonzero" fill="#000000">
                <path d="M12.4425548,7.57428829 L12.4425548,0 L1.33313087,0 C0.59435418,0 0,0.59591827 0,1.33663911 L0,27.1783286 C0,27.9190494 0.59435418,28.5149677 1.33313087,28.5149677 L19.9969631,28.5149677 C20.7357398,28.5149677 21.3300939,27.9190494 21.3300939,27.1783286 L21.3300939,8.9109274 L13.7756857,8.9109274 C13.0424637,8.9109274 12.4425548,8.3094398 12.4425548,7.57428829 Z M3.55501566,4.00991733 C3.55501566,3.76375296 3.75387434,3.56437096 3.99939261,3.56437096 L8.44316218,3.56437096 C8.68868045,3.56437096 8.88753914,3.76375296 8.88753914,4.00991733 L8.88753914,4.90101007 C8.88753914,5.14717444 8.68868045,5.34655644 8.44316218,5.34655644 L3.99939261,5.34655644 C3.75387434,5.34655644 3.55501566,5.14717444 3.55501566,4.90101007 L3.55501566,4.00991733 Z M3.55501566,7.57428829 C3.55501566,7.32812392 3.75387434,7.12874192 3.99939261,7.12874192 L8.44316218,7.12874192 C8.68868045,7.12874192 8.88753914,7.32812392 8.88753914,7.57428829 L8.88753914,8.46538103 C8.88753914,8.7115454 8.68868045,8.9109274 8.44316218,8.9109274 L3.99939261,8.9109274 C3.75387434,8.9109274 3.55501566,8.7115454 3.55501566,8.46538103 L3.55501566,7.57428829 Z M14.2650558,21.3862258 L16.8863244,21.3862258 C17.3773609,21.3862258 17.7750783,21.7849898 17.7750783,22.2773185 C17.7750783,22.7696472 17.3773609,23.1684112 16.8863244,23.1684112 L14.2650558,23.1684112 C13.3513057,23.1684112 12.5280974,22.6593745 12.1187151,21.8395692 C11.9548511,21.5098649 11.6693389,21.4764489 11.5538009,21.4764489 C11.4382629,21.4764489 11.1527507,21.5093079 10.9972187,21.8211904 L10.5711723,22.6755256 C10.4207007,22.9774275 10.1129065,23.1680677 9.77629305,23.1678543 C9.75518515,23.1678543 9.73463271,23.1667404 9.71296934,23.1650696 C9.35469041,23.1400077 9.0464039,22.9005265 8.93364325,22.5585696 L7.99878522,19.7482859 L7.40943029,21.5237882 C7.08225775,22.5073318 6.16628575,23.1684112 5.13199838,23.1684112 L4.44376957,23.1684112 C3.95273303,23.1684112 3.55501566,22.7696472 3.55501566,22.2773185 C3.55501566,21.7849898 3.95273303,21.3862258 4.44376957,21.3862258 L5.13199838,21.3862258 C5.40029097,21.3862258 5.63803264,21.2146904 5.72301973,20.9596151 L6.73342184,17.9165334 C6.91672733,17.3701822 7.42442801,17.0026064 7.99878522,17.0026064 C8.57314244,17.0026064 9.08084311,17.3696252 9.26359314,17.9165334 L10.0345872,20.2356023 C11.1327537,19.3339278 13.036909,19.6953773 13.7006971,21.0242193 C13.8129022,21.2503341 14.0317579,21.3862258 14.2650558,21.3862258 Z M20.9412641,5.84779611 L15.5032011,0.389853074 C15.253239,0.139233241 14.9144016,0 14.5589001,0 L14.2200626,0 L14.2200626,7.12874192 L21.3300939,7.12874192 L21.3300939,6.78901281 C21.3300939,6.43814505 21.1912261,6.09841594 20.9412641,5.84779611 Z" id="Shape"></path>
            </g>
            <g id="building-solid" transform="translate(384.096615, 135.446096)" fill-rule="nonzero" fill="#000000">
                <path d="M35.7990143,39.2971898 L34.1568577,39.2971898 L34.1568577,1.96485949 C34.1568577,0.879683968 33.2746091,0 32.1862698,0 L4.59803854,0 C3.50969924,0 2.62745059,0.879683968 2.62745059,1.96485949 L2.62745059,39.2971898 L0.985293972,39.2971898 C0.441165376,39.2971898 0,39.7370727 0,40.2796196 L0,41.9170025 L36.7843083,41.9170025 L36.7843083,40.2796196 C36.7843083,39.7370727 36.3431429,39.2971898 35.7990143,39.2971898 Z M10.5098024,6.22205506 C10.5098024,5.67950823 10.9509677,5.23962531 11.4950963,5.23962531 L14.7794096,5.23962531 C15.3235382,5.23962531 15.7647036,5.67950823 15.7647036,6.22205506 L15.7647036,9.49682088 C15.7647036,10.0393677 15.3235382,10.4792506 14.7794096,10.4792506 L11.4950963,10.4792506 C10.9509677,10.4792506 10.5098024,10.0393677 10.5098024,9.49682088 L10.5098024,6.22205506 Z M10.5098024,14.081493 C10.5098024,13.5389462 10.9509677,13.0990633 11.4950963,13.0990633 L14.7794096,13.0990633 C15.3235382,13.0990633 15.7647036,13.5389462 15.7647036,14.081493 L15.7647036,17.3562588 C15.7647036,17.8988057 15.3235382,18.3386886 14.7794096,18.3386886 L11.4950963,18.3386886 C10.9509677,18.3386886 10.5098024,17.8988057 10.5098024,17.3562588 L10.5098024,14.081493 Z M14.7794096,26.1981266 L11.4950963,26.1981266 C10.9509677,26.1981266 10.5098024,25.7582436 10.5098024,25.2156968 L10.5098024,21.940931 C10.5098024,21.3983842 10.9509677,20.9585012 11.4950963,20.9585012 L14.7794096,20.9585012 C15.3235382,20.9585012 15.7647036,21.3983842 15.7647036,21.940931 L15.7647036,25.2156968 C15.7647036,25.7582436 15.3235382,26.1981266 14.7794096,26.1981266 Z M21.0196047,39.2971898 L15.7647036,39.2971898 L15.7647036,32.4201816 C15.7647036,31.8776348 16.2058689,31.4377519 16.7499975,31.4377519 L20.0343108,31.4377519 C20.5784394,31.4377519 21.0196047,31.8776348 21.0196047,32.4201816 L21.0196047,39.2971898 Z M26.2745059,25.2156968 C26.2745059,25.7582436 25.8333406,26.1981266 25.289212,26.1981266 L22.0048987,26.1981266 C21.4607701,26.1981266 21.0196047,25.7582436 21.0196047,25.2156968 L21.0196047,21.940931 C21.0196047,21.3983842 21.4607701,20.9585012 22.0048987,20.9585012 L25.289212,20.9585012 C25.8333406,20.9585012 26.2745059,21.3983842 26.2745059,21.940931 L26.2745059,25.2156968 Z M26.2745059,17.3562588 C26.2745059,17.8988057 25.8333406,18.3386886 25.289212,18.3386886 L22.0048987,18.3386886 C21.4607701,18.3386886 21.0196047,17.8988057 21.0196047,17.3562588 L21.0196047,14.081493 C21.0196047,13.5389462 21.4607701,13.0990633 22.0048987,13.0990633 L25.289212,13.0990633 C25.8333406,13.0990633 26.2745059,13.5389462 26.2745059,14.081493 L26.2745059,17.3562588 Z M26.2745059,9.49682088 C26.2745059,10.0393677 25.8333406,10.4792506 25.289212,10.4792506 L22.0048987,10.4792506 C21.4607701,10.4792506 21.0196047,10.0393677 21.0196047,9.49682088 L21.0196047,6.22205506 C21.0196047,5.67950823 21.4607701,5.23962531 22.0048987,5.23962531 L25.289212,5.23962531 C25.8333406,5.23962531 26.2745059,5.67950823 26.2745059,6.22205506 L26.2745059,9.49682088 Z" id="Shape"></path>
            </g>
            <g id="users-solid" transform="translate(49.045744, 116.341068)" fill-rule="nonzero" fill="#000000">
                <path d="M9.40993933,18.8198787 C12.8700524,18.8198787 15.6832322,16.0066989 15.6832322,12.5465858 C15.6832322,9.08647267 12.8700524,6.27329289 9.40993933,6.27329289 C5.94982622,6.27329289 3.13664644,9.08647267 3.13664644,12.5465858 C3.13664644,16.0066989 5.94982622,18.8198787 9.40993933,18.8198787 Z M53.3229896,18.8198787 C56.7831027,18.8198787 59.5962824,16.0066989 59.5962824,12.5465858 C59.5962824,9.08647267 56.7831027,6.27329289 53.3229896,6.27329289 C49.8628764,6.27329289 47.0496967,9.08647267 47.0496967,12.5465858 C47.0496967,16.0066989 49.8628764,18.8198787 53.3229896,18.8198787 Z M56.459636,21.9565251 L50.1863431,21.9565251 C48.4611876,21.9565251 46.9026664,22.6524685 45.765632,23.7797009 C49.7158461,25.9459473 52.5192239,29.8569533 53.1269492,34.5031109 L59.5962824,34.5031109 C61.33124,34.5031109 62.7329289,33.101422 62.7329289,31.3664644 L62.7329289,28.229818 C62.7329289,24.7697049 59.9197491,21.9565251 56.459636,21.9565251 Z M31.3664644,21.9565251 C37.4339149,21.9565251 42.344727,17.045713 42.344727,10.9782626 C42.344727,4.91081209 37.4339149,0 31.3664644,0 C25.299014,0 20.3882019,4.91081209 20.3882019,10.9782626 C20.3882019,17.045713 25.299014,21.9565251 31.3664644,21.9565251 Z M38.8944159,25.0931716 L38.0808482,25.0931716 C36.042028,26.0733736 33.7777614,26.6614948 31.3664644,26.6614948 C28.9551675,26.6614948 26.7007029,26.0733736 24.6520806,25.0931716 L23.838513,25.0931716 C17.6044282,25.0931716 12.5465858,30.1510139 12.5465858,36.3850988 L12.5465858,39.2080806 C12.5465858,41.8056159 14.6540201,43.9130502 17.2515554,43.9130502 L45.4813734,43.9130502 C48.0789088,43.9130502 50.1863431,41.8056159 50.1863431,39.2080806 L50.1863431,36.3850988 C50.1863431,30.1510139 45.1285007,25.0931716 38.8944159,25.0931716 Z M16.9672969,23.7797009 C15.8302625,22.6524685 14.2717413,21.9565251 12.5465858,21.9565251 L6.27329289,21.9565251 C2.81317978,21.9565251 0,24.7697049 0,28.229818 L0,31.3664644 C0,33.101422 1.40168888,34.5031109 3.13664644,34.5031109 L9.59617772,34.5031109 C10.213705,29.8569533 13.0170827,25.9459473 16.9672969,23.7797009 Z" id="Shape"></path>
            </g>
            <path d="M324.323933,101.80182 C324.323933,108.330671 318.592499,112.118402 310.867523,112.118402 C303.142547,112.118402 297.411113,108.131317 297.411113,102.001175 C297.411113,97.7150587 299.354817,95.2231309 303.04287,93.52862 C300.351588,91.8839476 298.607238,89.6412126 298.607238,85.8534822 C298.607238,80.4709181 303.491417,76.2346408 310.867523,76.2346408 C318.24363,76.2346408 323.127808,80.4709181 323.127808,85.8534822 C323.127808,89.6412126 321.383459,91.8839476 318.692177,93.52862 C322.230714,95.3726466 324.323933,97.6153816 324.323933,101.80182 Z M315.851379,86.7007377 C315.851379,84.5078412 314.007352,82.5641375 310.867523,82.5641375 C307.727694,82.5641375 305.883667,84.4580027 305.883667,86.6508992 C305.883667,89.142827 307.827371,90.9868536 310.867523,90.9868536 C313.907675,90.9868536 315.851379,89.1926655 315.851379,86.7007377 Z M316.897989,101.403112 C316.897989,98.6619913 314.356222,97.0671575 310.867523,97.0671575 C307.378824,97.0671575 304.837058,98.6619913 304.837058,101.403112 C304.837058,103.89504 307.079793,105.788905 310.867523,105.788905 C314.655253,105.788905 316.897989,103.89504 316.897989,101.403112 Z M358.363668,88.8936342 C358.363668,96.9674804 352.08401,101.153919 344.259356,101.153919 L338.428245,101.153919 L338.428245,111.620016 L330.753107,111.620016 L330.753107,76.7330264 L345.006934,76.7330264 C353.329973,76.7330264 358.363668,81.6670435 358.363668,88.7939571 L358.363668,88.8936342 Z M350.588853,89.0431499 L350.588853,88.9434728 C350.588853,85.5046123 348.196602,83.6605858 344.359033,83.6605858 L338.428245,83.6605858 L338.428245,94.3260369 L344.508549,94.3260369 C348.346118,94.3260369 350.588853,92.0334633 350.588853,89.0431499 Z M398.035159,111.620016 L390.011151,111.620016 L386.821484,103.795363 L372.069271,103.795363 L368.879603,111.620016 L361.05495,111.620016 L376.006517,76.4838336 L383.083592,76.4838336 L398.035159,111.620016 Z M384.080363,97.0173189 L379.445377,85.7039666 L374.810391,97.0173189 L384.080363,97.0173189 Z M429.832158,83.8101014 L429.832158,76.7330264 L400.925795,76.7330264 L400.925795,83.8101014 L411.541408,83.8101014 L411.541408,111.620016 L419.216545,111.620016 L419.216545,83.8101014 L429.832158,83.8101014 Z M465.865434,111.620016 L456.894494,111.620016 L449.418711,100.456179 L443.388245,100.456179 L443.388245,111.620016 L435.713108,111.620016 L435.713108,76.7330264 L451.661446,76.7330264 C459.884808,76.7330264 464.818825,81.0689808 464.818825,88.245733 L464.818825,88.3454101 C464.818825,93.977167 461.778673,97.5157045 457.343041,99.1603769 L465.865434,111.620016 Z M457.04401,88.7441185 L457.04401,88.6444414 C457.04401,85.3550967 454.751436,83.6605858 451.013544,83.6605858 L443.388245,83.6605858 L443.388245,93.6781356 L451.16306,93.6781356 C454.900952,93.6781356 457.04401,91.6845934 457.04401,88.7441185 Z M507.281275,94.1765212 C507.281275,104.094394 499.456622,112.218079 488.691493,112.218079 C477.926365,112.218079 470.201389,104.194071 470.201389,94.2761983 L470.201389,94.1765212 C470.201389,84.2586484 478.026042,76.1349637 488.79117,76.1349637 C499.556299,76.1349637 507.281275,84.1589713 507.281275,94.0768441 L507.281275,94.1765212 Z M499.257267,94.2761983 L499.257267,94.1765212 C499.257267,88.1958944 494.871474,83.2120387 488.691493,83.2120387 C482.511512,83.2120387 478.225396,88.0962173 478.225396,94.0768441 L478.225396,94.1765212 C478.225396,100.157148 482.611189,105.141004 488.79117,105.141004 C494.971151,105.141004 499.257267,100.256825 499.257267,94.2761983 Z" id="8PATRO" fill="#000000"></path>
            <path d="M41.270283,176.676459 L43.8366301,176.676459 L43.8366301,191.335433 L41.270283,191.335433 L41.270283,176.676459 Z M46.6493465,180.721022 L48.8666704,180.721022 L48.8666704,182.281361 L48.907732,182.322422 C49.2636005,181.73387 49.7289602,181.271932 50.3038248,180.936595 C50.8786894,180.601257 51.5151371,180.433591 52.213187,180.433591 C53.3766035,180.433591 54.2936357,180.734706 54.9643111,181.336945 C55.6349865,181.939184 55.9703192,182.842529 55.9703192,184.047007 L55.9703192,191.335433 L53.6298106,191.335433 L53.6298106,184.662931 C53.6024361,183.828008 53.4245045,183.222356 53.0960104,182.845957 C52.7675163,182.469557 52.2542521,182.281361 51.5562022,182.281361 C51.1592718,182.281361 50.8034086,182.353218 50.4886018,182.496934 C50.173795,182.64065 49.9068975,182.839112 49.6879015,183.092326 C49.4689054,183.34554 49.2978173,183.643234 49.1746321,183.985415 C49.0514468,184.327596 48.9898551,184.690303 48.9898551,185.073546 L48.9898551,191.335433 L46.6493465,191.335433 L46.6493465,180.721022 Z M57.3869427,180.721022 L59.9327591,180.721022 L62.6222908,188.87174 L62.6633524,188.87174 L65.2502302,180.721022 L67.6728619,180.721022 L63.8746682,191.335433 L61.2467288,191.335433 L57.3869427,180.721022 Z M76.3779112,185.094077 C76.3505367,184.724521 76.2718362,184.368658 76.1418073,184.026477 C76.0117784,183.684295 75.8338468,183.386602 75.6080071,183.133388 C75.3821674,182.880174 75.1084265,182.674868 74.786776,182.517465 C74.4651256,182.360061 74.1058406,182.281361 73.7089102,182.281361 C73.2982927,182.281361 72.9253206,182.353218 72.5899829,182.496934 C72.2546452,182.64065 71.9672172,182.839112 71.7276903,183.092326 C71.4881634,183.34554 71.2965447,183.643234 71.1528285,183.985415 C71.0091124,184.327596 70.9304119,184.697147 70.9167246,185.094077 L76.3779112,185.094077 Z M70.9167246,186.633885 C70.9167246,187.044503 70.9748946,187.441427 71.0912362,187.82467 C71.2075779,188.207913 71.3820877,188.543246 71.614771,188.830678 C71.8474543,189.118111 72.1417258,189.347369 72.4975944,189.518459 C72.853463,189.68955 73.2777615,189.775094 73.7705026,189.775094 C74.4548652,189.775094 75.0057689,189.627958 75.4232301,189.333682 C75.8406913,189.039406 76.1520716,188.597999 76.3573804,188.009447 L78.5747043,188.009447 C78.4515191,188.584312 78.2393698,189.097576 77.9382503,189.549256 C77.6371307,190.000935 77.2744239,190.38075 76.8501191,190.688714 C76.4258142,190.996677 75.9501893,191.229357 75.4232301,191.38676 C74.8962709,191.544163 74.3453672,191.622864 73.7705026,191.622864 C72.9355801,191.622864 72.1964796,191.485994 71.5531787,191.212248 C70.9098778,190.938503 70.3658177,190.555266 69.9209819,190.062525 C69.4761462,189.569784 69.1408136,188.981241 68.9149739,188.296878 C68.6891342,187.612516 68.5762161,186.859728 68.5762161,186.038493 C68.5762161,185.285694 68.6959777,184.570546 68.9355047,183.893027 C69.1750316,183.215508 69.5172078,182.620121 69.9620435,182.106849 C70.4068792,181.593577 70.9440958,181.186387 71.5737095,180.885268 C72.2033231,180.584148 72.9150496,180.433591 73.7089102,180.433591 C74.5438327,180.433591 75.2931985,180.608101 75.9570303,180.957125 C76.6208621,181.30615 77.1717657,181.768088 77.6097578,182.342953 C78.0477499,182.917818 78.3659738,183.578218 78.5644389,184.324173 C78.7629041,185.070128 78.8142305,185.840025 78.7184198,186.633885 L70.9167246,186.633885 Z M82.2702441,187.927324 C82.3386804,188.611687 82.5987343,189.090733 83.0504137,189.364479 C83.502093,189.638224 84.0427314,189.775094 84.672345,189.775094 C84.8913411,189.775094 85.1411297,189.757985 85.4217184,189.723767 C85.7023071,189.689549 85.9657827,189.624536 86.2121533,189.528725 C86.4585238,189.432914 86.6604078,189.292622 86.8178112,189.107844 C86.9752146,188.923066 87.0470716,188.680121 87.0333843,188.379001 C87.0196971,188.077882 86.9102007,187.831515 86.7048919,187.639893 C86.4995831,187.448272 86.2361075,187.294292 85.914457,187.177951 C85.5928066,187.061609 85.226678,186.962378 84.8160605,186.880255 C84.4054429,186.798131 83.9879879,186.709165 83.5636831,186.613354 C83.125691,186.517544 82.7048143,186.401204 82.3010403,186.264331 C81.8972663,186.127459 81.5345596,185.942684 81.2129091,185.71 C80.8912587,185.477317 80.6346266,185.179624 80.443005,184.816911 C80.2513835,184.454199 80.1555741,184.005948 80.1555741,183.472146 C80.1555741,182.897281 80.2958664,182.414813 80.5764551,182.024726 C80.8570437,181.634639 81.212907,181.319837 81.6440555,181.08031 C82.0752039,180.840783 82.5542506,180.673117 83.0812098,180.577306 C83.6081691,180.481495 84.1111681,180.433591 84.5902219,180.433591 C85.137712,180.433591 85.6612416,180.491761 86.1608263,180.608102 C86.6604111,180.724444 87.1120836,180.912641 87.5158576,181.172699 C87.9196316,181.432756 88.2549642,181.771511 88.5218657,182.188972 C88.7887671,182.606433 88.9564334,183.109432 89.0248697,183.697984 L86.5817073,183.697984 C86.4722092,183.136807 86.2155771,182.760413 85.8118031,182.568791 C85.4080292,182.37717 84.9460913,182.281361 84.4259757,182.281361 C84.2617287,182.281361 84.0666882,182.295048 83.8408486,182.322422 C83.6150089,182.349797 83.4028596,182.401123 83.2043945,182.476403 C83.0059293,182.551683 82.838263,182.661179 82.7013905,182.804895 C82.5645179,182.948612 82.4960827,183.136808 82.4960827,183.369492 C82.4960827,183.656924 82.5953138,183.889604 82.7937789,184.067538 C82.9922441,184.245472 83.252298,184.392608 83.5739485,184.50895 C83.8955989,184.625291 84.2617274,184.724523 84.672345,184.806646 C85.0829626,184.88877 85.5072611,184.977735 85.9452532,185.073546 C86.369558,185.169357 86.787013,185.285697 87.1976306,185.422569 C87.6082481,185.559442 87.9743767,185.744217 88.2960271,185.9769 C88.6176776,186.209584 88.8777315,186.503855 89.0761966,186.859724 C89.2746618,187.215592 89.3738929,187.653578 89.3738929,188.173693 C89.3738929,188.803307 89.2301789,189.337102 88.9427466,189.775094 C88.6553143,190.213086 88.2823422,190.568949 87.8238192,190.842694 C87.3652963,191.11644 86.8554537,191.314902 86.2942764,191.438087 C85.733099,191.561272 85.1787736,191.622864 84.6312835,191.622864 C83.9606081,191.622864 83.3412692,191.547585 82.7732482,191.397025 C82.2052272,191.246466 81.7124935,191.017208 81.2950322,190.709244 C80.877571,190.401281 80.5490819,190.018044 80.309555,189.559521 C80.070028,189.100998 79.9434228,188.556938 79.9297356,187.927324 L82.2702441,187.927324 Z M90.0924701,180.721022 L91.8581169,180.721022 L91.8581169,177.538751 L94.1986254,177.538751 L94.1986254,180.721022 L96.3132954,180.721022 L96.3132954,182.466138 L94.1986254,182.466138 L94.1986254,188.132632 C94.1986254,188.379002 94.2088907,188.591152 94.2294216,188.769086 C94.2499525,188.94702 94.2978571,189.097578 94.373137,189.220763 C94.4484169,189.343948 94.5613351,189.436336 94.7118948,189.497929 C94.8624546,189.559521 95.0677603,189.590317 95.3278181,189.590317 C95.4920652,189.590317 95.6563097,189.586895 95.8205568,189.580052 C95.9848038,189.573208 96.1490484,189.549256 96.3132954,189.508194 L96.3132954,191.314902 C96.0532376,191.342277 95.8000272,191.369651 95.5536567,191.397025 C95.3072861,191.4244 95.0540757,191.438087 94.7940179,191.438087 C94.1780916,191.438087 93.6819361,191.379917 93.3055366,191.263575 C92.9291372,191.147234 92.6348657,190.976146 92.4227132,190.750306 C92.2105608,190.524466 92.0668468,190.24046 91.9915669,189.898279 C91.916287,189.556097 91.8718041,189.166017 91.8581169,188.728024 L91.8581169,182.466138 L90.0924701,182.466138 L90.0924701,180.721022 Z M102.862613,191.622864 C102.014004,191.622864 101.257794,191.482572 100.593962,191.201983 C99.9301306,190.921394 99.3689617,190.534735 98.9104387,190.041994 C98.4519157,189.549253 98.102896,188.96071 97.8633691,188.276347 C97.6238421,187.591985 97.5040805,186.839197 97.5040805,186.017962 C97.5040805,185.210414 97.6238421,184.46447 97.8633691,183.780107 C98.102896,183.095745 98.4519157,182.507202 98.9104387,182.01446 C99.3689617,181.521719 99.9301306,181.13506 100.593962,180.854472 C101.257794,180.573883 102.014004,180.433591 102.862613,180.433591 C103.711223,180.433591 104.467432,180.573883 105.131264,180.854472 C105.795096,181.13506 106.356265,181.521719 106.814788,182.01446 C107.273311,182.507202 107.62233,183.095745 107.861857,183.780107 C108.101384,184.46447 108.221146,185.210414 108.221146,186.017962 C108.221146,186.839197 108.101384,187.591985 107.861857,188.276347 C107.62233,188.96071 107.273311,189.549253 106.814788,190.041994 C106.356265,190.534735 105.795096,190.921394 105.131264,191.201983 C104.467432,191.482572 103.711223,191.622864 102.862613,191.622864 Z M102.862613,189.775094 C103.382729,189.775094 103.834401,189.665598 104.217644,189.446602 C104.600888,189.227606 104.91569,188.940178 105.16206,188.584309 C105.408431,188.22844 105.589784,187.828094 105.706126,187.383259 C105.822467,186.938423 105.880637,186.483329 105.880637,186.017962 C105.880637,185.566283 105.822467,185.11461 105.706126,184.662931 C105.589784,184.211251 105.408431,183.810905 105.16206,183.46188 C104.91569,183.112855 104.600888,182.828849 104.217644,182.609853 C103.834401,182.390857 103.382729,182.281361 102.862613,182.281361 C102.342498,182.281361 101.890825,182.390857 101.507582,182.609853 C101.124339,182.828849 100.809537,183.112855 100.563166,183.46188 C100.316796,183.810905 100.135442,184.211251 100.019101,184.662931 C99.902759,185.11461 99.844589,185.566283 99.844589,186.017962 C99.844589,186.483329 99.902759,186.938423 100.019101,187.383259 C100.135442,187.828094 100.316796,188.22844 100.563166,188.584309 C100.809537,188.940178 101.124339,189.227606 101.507582,189.446602 C101.890825,189.665598 102.342498,189.775094 102.862613,189.775094 Z M110.17157,180.721022 L112.368363,180.721022 L112.368363,182.774099 L112.409424,182.774099 C112.477861,182.486667 112.611309,182.206082 112.809775,181.932337 C113.00824,181.658592 113.247763,181.408804 113.528352,181.182964 C113.80894,180.957124 114.120321,180.775771 114.462502,180.638898 C114.804683,180.502026 115.153703,180.433591 115.509572,180.433591 C115.783317,180.433591 115.971514,180.440434 116.074168,180.454121 C116.176822,180.467809 116.282897,180.481496 116.392395,180.495183 L116.392395,182.753568 C116.228148,182.726194 116.060482,182.702242 115.889391,182.681711 C115.7183,182.66118 115.550634,182.650915 115.386387,182.650915 C114.989457,182.650915 114.616485,182.729615 114.26746,182.887018 C113.918435,183.044422 113.613898,183.277102 113.35384,183.585065 C113.093782,183.893028 112.888477,184.272844 112.737917,184.724523 C112.587357,185.176202 112.512078,185.69631 112.512078,186.284862 L112.512078,191.335433 L110.17157,191.335433 L110.17157,180.721022 Z M114.40091,179.242806 L112.121994,179.242806 L109.9252,176.306905 L111.814032,176.306905 L113.251186,178.134144 L114.708871,176.306905 L116.618234,176.306905 L114.40091,179.242806 Z M117.459995,176.676459 L119.800504,176.676459 L119.800504,178.893782 L117.459995,178.893782 L117.459995,176.676459 Z M117.459995,180.721022 L119.800504,180.721022 L119.800504,191.335433 L117.459995,191.335433 L117.459995,180.721022 Z" id="Investoři" fill="#000000"></path>
            <path d="M349.470319,203.765678 L352.180382,203.765678 L358.873415,214.564866 L358.914476,214.564866 L358.914476,203.765678 L361.357639,203.765678 L361.357639,218.424652 L358.647576,218.424652 L351.975074,207.645995 L351.913481,207.645995 L351.913481,218.424652 L349.470319,218.424652 L349.470319,203.765678 Z M371.356127,212.183296 C371.328753,211.81374 371.250052,211.457877 371.120023,211.115696 C370.989994,210.773515 370.812063,210.475821 370.586223,210.222607 C370.360383,209.969393 370.086642,209.764087 369.764992,209.606684 C369.443341,209.44928 369.084056,209.37058 368.687126,209.37058 C368.276508,209.37058 367.903536,209.442437 367.568199,209.586153 C367.232861,209.729869 366.945433,209.928331 366.705906,210.181546 C366.466379,210.43476 366.274761,210.732453 366.131044,211.074634 C365.987328,211.416816 365.908628,211.786366 365.89494,212.183296 L371.356127,212.183296 Z M365.89494,213.723105 C365.89494,214.133722 365.95311,214.530646 366.069452,214.91389 C366.185794,215.297133 366.360304,215.632465 366.592987,215.919898 C366.82567,216.20733 367.119942,216.436588 367.47581,216.607679 C367.831679,216.778769 368.255977,216.864313 368.748718,216.864313 C369.433081,216.864313 369.983985,216.717178 370.401446,216.422902 C370.818907,216.128626 371.130287,215.687218 371.335596,215.098667 L373.55292,215.098667 C373.429735,215.673531 373.217586,216.186795 372.916466,216.638475 C372.615347,217.090154 372.25264,217.46997 371.828335,217.777933 C371.40403,218.085896 370.928405,218.318576 370.401446,218.475979 C369.874487,218.633383 369.323583,218.712083 368.748718,218.712083 C367.913796,218.712083 367.174695,218.575213 366.531395,218.301468 C365.888094,218.027723 365.344033,217.644485 364.899198,217.151744 C364.454362,216.659003 364.119029,216.07046 363.89319,215.386097 C363.66735,214.701735 363.554432,213.948947 363.554432,213.127712 C363.554432,212.374913 363.674194,211.659765 363.91372,210.982246 C364.153247,210.304727 364.495424,209.70934 364.940259,209.196068 C365.385095,208.682796 365.922312,208.275607 366.551925,207.974487 C367.181539,207.673367 367.893265,207.52281 368.687126,207.52281 C369.522048,207.52281 370.271414,207.69732 370.935246,208.046345 C371.599078,208.39537 372.149982,208.857308 372.587974,209.432172 C373.025966,210.007037 373.34419,210.667437 373.542655,211.413392 C373.74112,212.159347 373.792446,212.929244 373.696636,213.723105 L365.89494,213.723105 Z M375.482813,207.810241 L377.700137,207.810241 L377.700137,209.288457 L377.761729,209.288457 C377.939664,209.028399 378.131282,208.788876 378.336591,208.56988 C378.5419,208.350884 378.771158,208.166108 379.024372,208.015549 C379.277586,207.864989 379.568436,207.745227 379.89693,207.65626 C380.225424,207.567293 380.601818,207.52281 381.026123,207.52281 C381.669424,207.52281 382.268232,207.666524 382.822566,207.953956 C383.3769,208.241389 383.770402,208.686218 384.003086,209.288457 C384.400016,208.740967 384.858532,208.309825 385.378648,207.995018 C385.898763,207.680211 386.548898,207.52281 387.329071,207.52281 C388.451426,207.52281 389.323975,207.796551 389.946745,208.344041 C390.569515,208.891531 390.880896,209.808563 390.880896,211.095165 L390.880896,218.424652 L388.540387,218.424652 L388.540387,212.224358 C388.540387,211.800053 388.5267,211.413394 388.499326,211.064369 C388.471951,210.715344 388.393251,210.414229 388.263222,210.161015 C388.133193,209.907801 387.938152,209.71276 387.678095,209.575888 C387.418037,209.439015 387.062173,209.37058 386.610494,209.37058 C385.816633,209.37058 385.241777,209.616947 384.885909,210.109688 C384.53004,210.602429 384.352109,211.300468 384.352109,212.203827 L384.352109,218.424652 L382.0116,218.424652 L382.0116,211.608435 C382.0116,210.869323 381.878151,210.311576 381.61125,209.935176 C381.344349,209.558777 380.855037,209.37058 380.143299,209.37058 C379.84218,209.37058 379.55133,209.432172 379.270741,209.555357 C378.990153,209.678542 378.743786,209.856474 378.531634,210.089157 C378.319481,210.32184 378.148393,210.609268 378.018364,210.95145 C377.888335,211.293631 377.823322,211.683712 377.823322,212.121704 L377.823322,218.424652 L375.482813,218.424652 L375.482813,207.810241 Z M398.210383,218.712083 C397.361773,218.712083 396.605564,218.571791 395.941732,218.291202 C395.2779,218.010614 394.716731,217.623955 394.258208,217.131213 C393.799686,216.638472 393.450666,216.049929 393.211139,215.365567 C392.971612,214.681204 392.85185,213.928416 392.85185,213.107181 C392.85185,212.299633 392.971612,211.553689 393.211139,210.869327 C393.450666,210.184964 393.799686,209.596421 394.258208,209.10368 C394.716731,208.610939 395.2779,208.22428 395.941732,207.943691 C396.605564,207.663102 397.361773,207.52281 398.210383,207.52281 C399.058993,207.52281 399.815202,207.663102 400.479034,207.943691 C401.142866,208.22428 401.704035,208.610939 402.162558,209.10368 C402.62108,209.596421 402.9701,210.184964 403.209627,210.869327 C403.449154,211.553689 403.568916,212.299633 403.568916,213.107181 C403.568916,213.928416 403.449154,214.681204 403.209627,215.365567 C402.9701,216.049929 402.62108,216.638472 402.162558,217.131213 C401.704035,217.623955 401.142866,218.010614 400.479034,218.291202 C399.815202,218.571791 399.058993,218.712083 398.210383,218.712083 Z M398.210383,216.864313 C398.730499,216.864313 399.182171,216.754817 399.565414,216.535821 C399.948657,216.316825 400.263459,216.029397 400.50983,215.673528 C400.756201,215.31766 400.937554,214.917314 401.053896,214.472478 C401.170237,214.027642 401.228407,213.572548 401.228407,213.107181 C401.228407,212.655502 401.170237,212.203829 401.053896,211.75215 C400.937554,211.300471 400.756201,210.900124 400.50983,210.5511 C400.263459,210.202075 399.948657,209.918068 399.565414,209.699072 C399.182171,209.480076 398.730499,209.37058 398.210383,209.37058 C397.690267,209.37058 397.238595,209.480076 396.855352,209.699072 C396.472109,209.918068 396.157307,210.202075 395.910936,210.5511 C395.664565,210.900124 395.483212,211.300471 395.36687,211.75215 C395.250529,212.203829 395.192359,212.655502 395.192359,213.107181 C395.192359,213.572548 395.250529,214.027642 395.36687,214.472478 C395.483212,214.917314 395.664565,215.31766 395.910936,215.673528 C396.157307,216.029397 396.472109,216.316825 396.855352,216.535821 C397.238595,216.754817 397.690267,216.864313 398.210383,216.864313 Z M404.47227,207.810241 L407.018086,207.810241 L409.707618,215.960959 L409.74868,215.960959 L412.335557,207.810241 L414.758189,207.810241 L410.959995,218.424652 L408.332056,218.424652 L404.47227,207.810241 Z M416.236405,203.765678 L418.576914,203.765678 L418.576914,205.983002 L416.236405,205.983002 L416.236405,203.765678 Z M416.236405,207.810241 L418.576914,207.810241 L418.576914,218.424652 L416.236405,218.424652 L416.236405,207.810241 Z M420.055129,207.810241 L421.820776,207.810241 L421.820776,204.62797 L424.161285,204.62797 L424.161285,207.810241 L426.275955,207.810241 L426.275955,209.555357 L424.161285,209.555357 L424.161285,215.221851 C424.161285,215.468222 424.17155,215.680371 424.192081,215.858305 C424.212612,216.03624 424.260516,216.186797 424.335796,216.309982 C424.411076,216.433168 424.523994,216.525555 424.674554,216.587148 C424.825114,216.648741 425.03042,216.679536 425.290478,216.679536 C425.454725,216.679536 425.618969,216.676115 425.783216,216.669271 C425.947463,216.662427 426.111708,216.638475 426.275955,216.597413 L426.275955,218.404122 C426.015897,218.431496 425.762687,218.45887 425.516316,218.486245 C425.269945,218.513619 425.016735,218.527306 424.756677,218.527306 C424.140751,218.527306 423.644595,218.469136 423.268196,218.352795 C422.891797,218.236453 422.597525,218.065365 422.385373,217.839525 C422.17322,217.613686 422.029506,217.329679 421.954226,216.987498 C421.878946,216.645317 421.834463,216.255236 421.820776,215.817244 L421.820776,209.555357 L420.055129,209.555357 L420.055129,207.810241 Z M432.825273,218.712083 C431.976663,218.712083 431.220453,218.571791 430.556622,218.291202 C429.89279,218.010614 429.331621,217.623955 428.873098,217.131213 C428.414575,216.638472 428.065555,216.049929 427.826028,215.365567 C427.586502,214.681204 427.46674,213.928416 427.46674,213.107181 C427.46674,212.299633 427.586502,211.553689 427.826028,210.869327 C428.065555,210.184964 428.414575,209.596421 428.873098,209.10368 C429.331621,208.610939 429.89279,208.22428 430.556622,207.943691 C431.220453,207.663102 431.976663,207.52281 432.825273,207.52281 C433.673882,207.52281 434.430092,207.663102 435.093923,207.943691 C435.757755,208.22428 436.318924,208.610939 436.777447,209.10368 C437.23597,209.596421 437.58499,210.184964 437.824517,210.869327 C438.064044,211.553689 438.183805,212.299633 438.183805,213.107181 C438.183805,213.928416 438.064044,214.681204 437.824517,215.365567 C437.58499,216.049929 437.23597,216.638472 436.777447,217.131213 C436.318924,217.623955 435.757755,218.010614 435.093923,218.291202 C434.430092,218.571791 433.673882,218.712083 432.825273,218.712083 Z M432.825273,216.864313 C433.345388,216.864313 433.797061,216.754817 434.180304,216.535821 C434.563547,216.316825 434.878349,216.029397 435.12472,215.673528 C435.37109,215.31766 435.552443,214.917314 435.668785,214.472478 C435.785127,214.027642 435.843297,213.572548 435.843297,213.107181 C435.843297,212.655502 435.785127,212.203829 435.668785,211.75215 C435.552443,211.300471 435.37109,210.900124 435.12472,210.5511 C434.878349,210.202075 434.563547,209.918068 434.180304,209.699072 C433.797061,209.480076 433.345388,209.37058 432.825273,209.37058 C432.305157,209.37058 431.853484,209.480076 431.470241,209.699072 C431.086998,209.918068 430.772196,210.202075 430.525826,210.5511 C430.279455,210.900124 430.098102,211.300471 429.98176,211.75215 C429.865418,212.203829 429.807248,212.655502 429.807248,213.107181 C429.807248,213.572548 429.865418,214.027642 429.98176,214.472478 C430.098102,214.917314 430.279455,215.31766 430.525826,215.673528 C430.772196,216.029397 431.086998,216.316825 431.470241,216.535821 C431.853484,216.754817 432.305157,216.864313 432.825273,216.864313 Z M441.899876,215.016543 C441.968312,215.700906 442.228366,216.179953 442.680045,216.453698 C443.131725,216.727443 443.672363,216.864313 444.301977,216.864313 C444.520973,216.864313 444.770761,216.847205 445.05135,216.812986 C445.331939,216.778768 445.595414,216.713755 445.841785,216.617944 C446.088156,216.522133 446.29004,216.381841 446.447443,216.197063 C446.604846,216.012285 446.676703,215.76934 446.663016,215.468221 C446.649329,215.167101 446.539832,214.920734 446.334524,214.729113 C446.129215,214.537491 445.865739,214.383512 445.544089,214.26717 C445.222438,214.150828 444.85631,214.051597 444.445692,213.969474 C444.035075,213.88735 443.61762,213.798385 443.193315,213.702574 C442.755323,213.606763 442.334446,213.490423 441.930672,213.353551 C441.526898,213.216678 441.164191,213.031903 440.842541,212.79922 C440.52089,212.566536 440.264258,212.268843 440.072637,211.906131 C439.881015,211.543419 439.785206,211.095168 439.785206,210.561365 C439.785206,209.9865 439.925498,209.504032 440.206087,209.113945 C440.486675,208.723858 440.842539,208.409056 441.273687,208.169529 C441.704836,207.930002 442.183882,207.762336 442.710842,207.666525 C443.237801,207.570715 443.7408,207.52281 444.219854,207.52281 C444.767344,207.52281 445.290873,207.58098 445.790458,207.697322 C446.290043,207.813663 446.741715,208.00186 447.145489,208.261918 C447.549263,208.521976 447.884596,208.86073 448.151497,209.278191 C448.418399,209.695653 448.586065,210.198652 448.654501,210.787203 L446.211339,210.787203 C446.101841,210.226026 445.845209,209.849632 445.441435,209.658011 C445.037661,209.466389 444.575723,209.37058 444.055607,209.37058 C443.89136,209.37058 443.69632,209.384267 443.47048,209.411641 C443.244641,209.439016 443.032491,209.490342 442.834026,209.565622 C442.635561,209.640902 442.467895,209.750399 442.331022,209.894115 C442.19415,210.037831 442.125714,210.226028 442.125714,210.458711 C442.125714,210.746143 442.224946,210.978823 442.423411,211.156757 C442.621876,211.334692 442.88193,211.481827 443.20358,211.598169 C443.525231,211.714511 443.891359,211.813742 444.301977,211.895865 C444.712594,211.977989 445.136893,212.066955 445.574885,212.162765 C445.99919,212.258576 446.416645,212.374916 446.827262,212.511789 C447.23788,212.648661 447.604008,212.833436 447.925659,213.06612 C448.247309,213.298803 448.507363,213.593074 448.705828,213.948943 C448.904294,214.304812 449.003525,214.742797 449.003525,215.262913 C449.003525,215.892526 448.859811,216.426321 448.572378,216.864313 C448.284946,217.302305 447.911974,217.658169 447.453451,217.931914 C446.994928,218.205659 446.485085,218.404121 445.923908,218.527306 C445.362731,218.650492 444.808405,218.712083 444.260915,218.712083 C443.59024,218.712083 442.970901,218.636805 442.40288,218.486245 C441.834859,218.335685 441.342125,218.106427 440.924664,217.798464 C440.507203,217.490501 440.178714,217.107263 439.939187,216.64874 C439.69966,216.190217 439.573055,215.646157 439.559367,215.016543 L441.899876,215.016543 Z M449.722102,207.810241 L451.487749,207.810241 L451.487749,204.62797 L453.828257,204.62797 L453.828257,207.810241 L455.942927,207.810241 L455.942927,209.555357 L453.828257,209.555357 L453.828257,215.221851 C453.828257,215.468222 453.838522,215.680371 453.859053,215.858305 C453.879584,216.03624 453.927489,216.186797 454.002769,216.309982 C454.078049,216.433168 454.190967,216.525555 454.341527,216.587148 C454.492086,216.648741 454.697392,216.679536 454.95745,216.679536 C455.121697,216.679536 455.285941,216.676115 455.450189,216.669271 C455.614436,216.662427 455.77868,216.638475 455.942927,216.597413 L455.942927,218.404122 C455.682869,218.431496 455.429659,218.45887 455.183288,218.486245 C454.936918,218.513619 454.683707,218.527306 454.42365,218.527306 C453.807723,218.527306 453.311568,218.469136 452.935168,218.352795 C452.558769,218.236453 452.264497,218.065365 452.052345,217.839525 C451.840193,217.613686 451.696479,217.329679 451.621199,216.987498 C451.545919,216.645317 451.501436,216.255236 451.487749,215.817244 L451.487749,209.555357 L449.722102,209.555357 L449.722102,207.810241 Z" id="Nemovitost" fill="#000000"></path>
            <path d="M684.233758,176.961608 L686.943821,176.961608 L693.636854,187.760797 L693.677916,187.760797 L693.677916,176.961608 L696.121078,176.961608 L696.121078,191.620583 L693.411016,191.620583 L686.738513,180.841925 L686.676921,180.841925 L686.676921,191.620583 L684.233758,191.620583 L684.233758,176.961608 Z M707.720967,189.259543 C707.720967,189.546976 707.758606,189.752281 707.833886,189.875467 C707.909166,189.998652 708.056302,190.060244 708.275298,190.060244 L708.521667,190.060244 C708.617478,190.060244 708.726974,190.046557 708.85016,190.019182 L708.85016,191.641114 C708.768036,191.668488 708.661962,191.699284 708.531933,191.733502 C708.401904,191.76772 708.268455,191.798516 708.131582,191.825891 C707.99471,191.853265 707.857839,191.873796 707.720967,191.887483 C707.584094,191.90117 707.467755,191.908014 707.371944,191.908014 C706.89289,191.908014 706.495966,191.812204 706.181159,191.620583 C705.866352,191.428961 705.661046,191.093629 705.565235,190.614575 C705.099869,191.066254 704.528435,191.394743 703.850916,191.600052 C703.173397,191.805361 702.51984,191.908014 701.890226,191.908014 C701.411173,191.908014 700.952656,191.843 700.514664,191.712971 C700.076672,191.582942 699.690013,191.391324 699.354675,191.13811 C699.019338,190.884895 698.75244,190.56325 698.553975,190.173163 C698.35551,189.783076 698.256279,189.327982 698.256279,188.807866 C698.256279,188.150878 698.376041,187.617083 698.615567,187.206466 C698.855094,186.795848 699.169896,186.474203 699.559983,186.241519 C699.95007,186.008836 700.388055,185.84117 700.873953,185.738515 C701.35985,185.635861 701.849162,185.55716 702.341903,185.502411 C702.766208,185.420288 703.169976,185.362118 703.553219,185.3279 C703.936462,185.293682 704.275217,185.235512 704.569493,185.153388 C704.863769,185.071265 705.096448,184.944659 705.267539,184.773569 C705.43863,184.602478 705.524174,184.345846 705.524174,184.003665 C705.524174,183.702545 705.452317,183.456178 705.308601,183.264557 C705.164885,183.072935 704.986953,182.925799 704.7748,182.823145 C704.562648,182.720491 704.326546,182.652055 704.066489,182.617837 C703.806431,182.583619 703.560064,182.56651 703.327381,182.56651 C702.670393,182.56651 702.129754,182.703381 701.705449,182.977126 C701.281145,183.250871 701.041621,183.675169 700.986872,184.250034 L698.646364,184.250034 C698.687425,183.565671 698.85167,182.997659 699.139102,182.545979 C699.426535,182.0943 699.792663,181.731593 700.237499,181.457848 C700.682335,181.184103 701.185334,180.992485 701.746511,180.882987 C702.307688,180.773489 702.882544,180.71874 703.471096,180.71874 C703.991212,180.71874 704.504476,180.773489 705.010904,180.882987 C705.517333,180.992485 705.972427,181.170416 706.376201,181.416787 C706.779975,181.663157 707.105042,181.981381 707.351413,182.371468 C707.597784,182.761555 707.720967,183.237179 707.720967,183.798357 L707.720967,189.259543 Z M705.380458,186.303112 C705.02459,186.535795 704.586604,186.676087 704.066489,186.723993 C703.546373,186.771898 703.026265,186.843755 702.50615,186.939566 C702.259779,186.980627 702.020256,187.038797 701.787572,187.114077 C701.554889,187.189357 701.349583,187.29201 701.171649,187.422039 C700.993715,187.552068 700.853423,187.723156 700.750768,187.935308 C700.648114,188.147461 700.596787,188.404093 700.596787,188.705212 C700.596787,188.96527 700.672066,189.184263 700.822626,189.362197 C700.973186,189.540132 701.154539,189.680424 701.366692,189.783078 C701.578844,189.885733 701.811524,189.95759 702.064738,189.998651 C702.317952,190.039713 702.54721,190.060244 702.752519,190.060244 C703.012577,190.060244 703.293161,190.026026 703.594281,189.95759 C703.8954,189.889154 704.179407,189.772814 704.446308,189.608567 C704.713209,189.44432 704.935624,189.235592 705.113558,188.982378 C705.291493,188.729164 705.380458,188.417783 705.380458,188.048228 L705.380458,186.303112 Z M704.045958,176.592054 L706.817613,176.592054 L703.902242,179.527955 L702.198188,179.527955 L704.045958,176.592054 Z M710.307845,176.961608 L712.648353,176.961608 L712.648353,179.178932 L710.307845,179.178932 L710.307845,176.961608 Z M710.307845,181.006171 L712.648353,181.006171 L712.648353,192.523937 C712.648353,193.577855 712.415674,194.392235 711.950307,194.967099 C711.48494,195.541964 710.704779,195.829392 709.609798,195.829392 C709.377115,195.829392 709.182075,195.822548 709.024671,195.808861 C708.867268,195.795174 708.713289,195.774643 708.562729,195.747269 L708.562729,193.899499 C708.713289,193.926874 708.857003,193.947404 708.993875,193.961091 C709.130748,193.974779 709.253931,193.981622 709.363429,193.981622 C709.787734,193.981622 710.05121,193.851595 710.153864,193.591537 C710.256518,193.33148 710.307845,192.941399 710.307845,192.421283 L710.307845,181.006171 Z M722.482595,185.379227 C722.455221,185.009671 722.37652,184.653808 722.246491,184.311626 C722.116463,183.969445 721.938531,183.671752 721.712691,183.418537 C721.486852,183.165323 721.213111,182.960018 720.89146,182.802614 C720.56981,182.645211 720.210525,182.56651 719.813594,182.56651 C719.402977,182.56651 719.030005,182.638367 718.694667,182.782083 C718.359329,182.9258 718.071901,183.124262 717.832374,183.377476 C717.592848,183.63069 717.401229,183.928383 717.257513,184.270565 C717.113797,184.612746 717.035096,184.982296 717.021409,185.379227 L722.482595,185.379227 Z M717.021409,186.919035 C717.021409,187.329653 717.079579,187.726577 717.19592,188.10982 C717.312262,188.493063 717.486772,188.828396 717.719455,189.115828 C717.952139,189.40326 718.24641,189.632518 718.602279,189.803609 C718.958147,189.9747 719.382446,190.060244 719.875187,190.060244 C720.559549,190.060244 721.110453,189.913108 721.527914,189.618832 C721.945376,189.324556 722.256756,188.883149 722.462065,188.294597 L724.679389,188.294597 C724.556203,188.869462 724.344054,189.382726 724.042934,189.834405 C723.741815,190.286085 723.379108,190.6659 722.954803,190.973863 C722.530498,191.281827 722.054874,191.514506 721.527914,191.67191 C721.000955,191.829313 720.450051,191.908014 719.875187,191.908014 C719.040264,191.908014 718.301164,191.771143 717.657863,191.497398 C717.014562,191.223653 716.470502,190.840416 716.025666,190.347675 C715.58083,189.854934 715.245498,189.26639 715.019658,188.582028 C714.793818,187.897665 714.6809,187.144878 714.6809,186.323642 C714.6809,185.570843 714.800662,184.855695 715.040189,184.178176 C715.279716,183.500657 715.621892,182.905271 716.066728,182.391999 C716.511563,181.878727 717.04878,181.471537 717.678394,181.170417 C718.308007,180.869298 719.019734,180.71874 719.813594,180.71874 C720.648517,180.71874 721.397883,180.89325 722.061714,181.242275 C722.725546,181.5913 723.27645,182.053238 723.714442,182.628103 C724.152434,183.202967 724.470658,183.863367 724.669123,184.609323 C724.867588,185.355278 724.918915,186.125174 724.823104,186.919035 L717.021409,186.919035 Z M726.609282,181.006171 L728.826605,181.006171 L728.826605,182.484387 L728.888198,182.484387 C729.066132,182.224329 729.257751,181.984806 729.463059,181.76581 C729.668368,181.546814 729.897626,181.362039 730.150841,181.211479 C730.404055,181.060919 730.694904,180.941158 731.023399,180.85219 C731.351893,180.763223 731.728286,180.71874 732.152591,180.71874 C732.795892,180.71874 733.3947,180.862454 733.949034,181.149887 C734.503368,181.437319 734.896871,181.882148 735.129554,182.484387 C735.526484,181.936897 735.985,181.505755 736.505116,181.190948 C737.025232,180.876141 737.675366,180.71874 738.45554,180.71874 C739.577894,180.71874 740.450444,180.992481 741.073214,181.539971 C741.695984,182.087462 742.007364,183.004494 742.007364,184.291095 L742.007364,191.620583 L739.666856,191.620583 L739.666856,185.420288 C739.666856,184.995983 739.653168,184.609324 739.625794,184.260299 C739.598419,183.911274 739.519719,183.610159 739.38969,183.356945 C739.259661,183.103731 739.064621,182.908691 738.804563,182.771818 C738.544505,182.634945 738.188642,182.56651 737.736963,182.56651 C736.943102,182.56651 736.368246,182.812877 736.012377,183.305618 C735.656509,183.798359 735.478577,184.496399 735.478577,185.399757 L735.478577,191.620583 L733.138069,191.620583 L733.138069,184.804365 C733.138069,184.065253 733.00462,183.507506 732.737718,183.131107 C732.470817,182.754707 731.981505,182.56651 731.269768,182.56651 C730.968648,182.56651 730.677799,182.628102 730.39721,182.751287 C730.116621,182.874473 729.870254,183.052404 729.658102,183.285087 C729.445949,183.517771 729.274861,183.805199 729.144832,184.14738 C729.014804,184.489561 728.94979,184.879642 728.94979,185.317634 L728.94979,191.620583 L726.609282,191.620583 L726.609282,181.006171 Z M751.636298,184.557996 C751.540488,183.901007 751.277012,183.404852 750.845863,183.069514 C750.414715,182.734177 749.870655,182.56651 749.213667,182.56651 C748.912547,182.56651 748.590902,182.617837 748.24872,182.720491 C747.906539,182.823145 747.591737,183.014764 747.304304,183.295353 C747.016872,183.575942 746.777349,183.966022 746.585727,184.465607 C746.394106,184.965192 746.298296,185.618748 746.298296,186.426296 C746.298296,186.864288 746.349623,187.302274 746.452277,187.740266 C746.554932,188.178258 746.719176,188.568339 746.945016,188.91052 C747.170856,189.252702 747.461705,189.529864 747.817574,189.742017 C748.173442,189.954169 748.604584,190.060244 749.111013,190.060244 C749.795375,190.060244 750.359966,189.848095 750.804802,189.42379 C751.249638,188.999485 751.5268,188.404098 751.636298,187.637612 L753.976807,187.637612 C753.757811,189.020025 753.234281,190.077349 752.406202,190.809617 C751.578124,191.541885 750.479738,191.908014 749.111013,191.908014 C748.27609,191.908014 747.540412,191.767721 746.903954,191.487133 C746.267497,191.206544 745.73028,190.823307 745.292288,190.337409 C744.854296,189.851512 744.522385,189.273234 744.296546,188.602559 C744.070706,187.931883 743.957788,187.20647 743.957788,186.426296 C743.957788,185.632436 744.067284,184.886492 744.28628,184.188442 C744.505276,183.490392 744.833765,182.88474 745.271758,182.371468 C745.70975,181.858196 746.25381,181.454428 746.903954,181.160152 C747.554099,180.865876 748.317152,180.71874 749.193136,180.71874 C749.809062,180.71874 750.394184,180.797441 750.948517,180.954844 C751.502851,181.112248 751.995585,181.348349 752.426733,181.663156 C752.857882,181.977963 753.210323,182.374887 753.484068,182.853941 C753.757813,183.332995 753.922058,183.901007 753.976807,184.557996 L751.636298,184.557996 Z M763.174595,185.379227 C763.14722,185.009671 763.06852,184.653808 762.938491,184.311626 C762.808462,183.969445 762.63053,183.671752 762.404691,183.418537 C762.178851,183.165323 761.90511,182.960018 761.58346,182.802614 C761.261809,182.645211 760.902524,182.56651 760.505594,182.56651 C760.094976,182.56651 759.722004,182.638367 759.386667,182.782083 C759.051329,182.9258 758.763901,183.124262 758.524374,183.377476 C758.284847,183.63069 758.093228,183.928383 757.949512,184.270565 C757.805796,184.612746 757.727096,184.982296 757.713408,185.379227 L763.174595,185.379227 Z M757.713408,186.919035 C757.713408,187.329653 757.771578,187.726577 757.88792,188.10982 C758.004262,188.493063 758.178771,188.828396 758.411455,189.115828 C758.644138,189.40326 758.93841,189.632518 759.294278,189.803609 C759.650147,189.9747 760.074445,190.060244 760.567186,190.060244 C761.251549,190.060244 761.802453,189.913108 762.219914,189.618832 C762.637375,189.324556 762.948755,188.883149 763.154064,188.294597 L765.371388,188.294597 C765.248203,188.869462 765.036053,189.382726 764.734934,189.834405 C764.433814,190.286085 764.071108,190.6659 763.646803,190.973863 C763.222498,191.281827 762.746873,191.514506 762.219914,191.67191 C761.692955,191.829313 761.142051,191.908014 760.567186,191.908014 C759.732264,191.908014 758.993163,191.771143 758.349862,191.497398 C757.706561,191.223653 757.162501,190.840416 756.717666,190.347675 C756.27283,189.854934 755.937497,189.26639 755.711658,188.582028 C755.485818,187.897665 755.3729,187.144878 755.3729,186.323642 C755.3729,185.570843 755.492661,184.855695 755.732188,184.178176 C755.971715,183.500657 756.313891,182.905271 756.758727,182.391999 C757.203563,181.878727 757.740779,181.471537 758.370393,181.170417 C759.000007,180.869298 759.711733,180.71874 760.505594,180.71874 C761.340516,180.71874 762.089882,180.89325 762.753714,181.242275 C763.417546,181.5913 763.968449,182.053238 764.406441,182.628103 C764.844434,183.202967 765.162657,183.863367 765.361123,184.609323 C765.559588,185.355278 765.610914,186.125174 765.515103,186.919035 L757.713408,186.919035 Z" id="Nájemce" fill="#000000"></path>
            <circle id="Oval" stroke="#000000" cx="402.487046" cy="151.557053" r="151.557053"></circle>
            <circle id="Oval" stroke="#000000" cx="80.269634" cy="156.404598" r="80.269634"></circle>
            <circle id="Oval" stroke="#000000" cx="724.422754" cy="156.404598" r="80.269634"></circle>
            <path d="M167.5,140 L240.5,140" id="Line" stroke="#000000" stroke-width="2" fill="#000000" stroke-linecap="square"></path>
            <path id="Line-decoration-1" d="M240.5,140 L229.7,137 L229.7,143 L240.5,140 Z" stroke="#000000" stroke-width="2" fill="#000000" stroke-linecap="square"></path>
            <path d="M240.5,160 L167.5,160" id="Line" stroke="#000000" stroke-width="2" fill="#000000" stroke-linecap="square"></path>
            <path id="Line-decoration-1" d="M167.5,160 L178.3,163 L178.3,157 L167.5,160 Z" stroke="#000000" stroke-width="2" fill="#000000" stroke-linecap="square"></path>
            <path d="M562.573381,142 L635.573381,142" id="Line" stroke="#000000" stroke-width="2" fill="#000000" stroke-linecap="square"></path>
            <path id="Line-decoration-1" d="M635.573381,142 L624.773381,139 L624.773381,145 L635.573381,142 Z" stroke="#000000" stroke-width="2" fill="#000000" stroke-linecap="square"></path>
            <path d="M636.073381,162 L563.073381,162" id="Line" stroke="#000000" stroke-width="2" fill="#000000" stroke-linecap="square"></path>
            <path id="Line-decoration-1" d="M563.073381,162 L573.873381,165 L573.873381,159 L563.073381,162 Z" stroke="#000000" stroke-width="2" fill="#000000" stroke-linecap="square"></path>
            <path d="M205.229522,113.643333 L204.400907,113.643333 L204.400907,109.069166 C204.400907,108.839418 204.215505,108.653333 203.9866,108.653333 L203.283313,108.653333 C203.037836,108.653333 202.798056,108.726104 202.59401,108.862809 L201.800093,109.394036 C201.708648,109.455145 201.645152,109.550228 201.623588,109.658347 C201.602024,109.766467 201.624161,109.878755 201.685123,109.970485 L202.145004,110.662328 C202.205889,110.75411 202.300623,110.817839 202.408345,110.839483 C202.516068,110.861126 202.627944,110.838908 202.719338,110.777721 L202.743678,110.761608 L202.743678,113.643333 L201.915064,113.643333 C201.686159,113.643333 201.500756,113.829418 201.500756,114.059166 L201.500756,114.890833 C201.500756,115.120581 201.686159,115.306666 201.915064,115.306666 L205.229522,115.306666 C205.458427,115.306666 205.643829,115.120581 205.643829,114.890833 L205.643829,114.059166 C205.643829,113.829418 205.458427,113.643333 205.229522,113.643333 L205.229522,113.643333 Z M218.487356,102 L188.657229,102 C187.742128,102 187,102.744861 187,103.663333 L187,120.296666 C187,121.215138 187.742128,121.959999 188.657229,121.959999 L218.487356,121.959999 C219.402458,121.959999 220.144586,121.215138 220.144586,120.296666 L220.144586,103.663333 C220.144586,102.744861 219.402458,102 218.487356,102 Z M189.485844,119.464999 L189.485844,116.138333 C191.316564,116.138333 192.800302,117.627536 192.800302,119.464999 L189.485844,119.464999 Z M189.485844,107.821666 L189.485844,104.495 L192.800302,104.495 C192.800302,106.332463 191.316564,107.821666 189.485844,107.821666 Z M203.572293,117.801666 C200.826471,117.801666 198.600605,115.194911 198.600605,111.98 C198.600605,108.764568 200.826471,106.158333 203.572293,106.158333 C206.318115,106.158333 208.543981,108.764568 208.543981,111.98 C208.543981,115.19595 206.317079,117.801666 203.572293,117.801666 Z M217.658742,119.464999 L214.344283,119.464999 C214.344283,117.627536 215.828021,116.138333 217.658742,116.138333 L217.658742,119.464999 Z M217.658742,107.821666 C215.828021,107.821666 214.344283,106.332463 214.344283,104.495 L217.658742,104.495 L217.658742,107.821666 Z" id="Shape" fill="#000000" fill-rule="nonzero"></path>
            <path d="M602.229522,194.643333 L601.400907,194.643333 L601.400907,190.069166 C601.400907,189.839418 601.215505,189.653333 600.9866,189.653333 L600.283313,189.653333 C600.037836,189.653333 599.798056,189.726104 599.59401,189.862809 L598.800093,190.394036 C598.708648,190.455145 598.645152,190.550228 598.623588,190.658347 C598.602024,190.766467 598.624161,190.878755 598.685123,190.970485 L599.145004,191.662328 C599.205889,191.75411 599.300623,191.817839 599.408345,191.839483 C599.516068,191.861126 599.627944,191.838908 599.719338,191.777721 L599.743678,191.761608 L599.743678,194.643333 L598.915064,194.643333 C598.686159,194.643333 598.500756,194.829418 598.500756,195.059166 L598.500756,195.890833 C598.500756,196.120581 598.686159,196.306666 598.915064,196.306666 L602.229522,196.306666 C602.458427,196.306666 602.643829,196.120581 602.643829,195.890833 L602.643829,195.059166 C602.643829,194.829418 602.458427,194.643333 602.229522,194.643333 L602.229522,194.643333 Z M615.487356,183 L585.657229,183 C584.742128,183 584,183.744861 584,184.663333 L584,201.296666 C584,202.215138 584.742128,202.959999 585.657229,202.959999 L615.487356,202.959999 C616.402458,202.959999 617.144586,202.215138 617.144586,201.296666 L617.144586,184.663333 C617.144586,183.744861 616.402458,183 615.487356,183 Z M586.485844,200.464999 L586.485844,197.138333 C588.316564,197.138333 589.800302,198.627536 589.800302,200.464999 L586.485844,200.464999 Z M586.485844,188.821666 L586.485844,185.495 L589.800302,185.495 C589.800302,187.332463 588.316564,188.821666 586.485844,188.821666 Z M600.572293,198.801666 C597.826471,198.801666 595.600605,196.194911 595.600605,192.98 C595.600605,189.764568 597.826471,187.158333 600.572293,187.158333 C603.318115,187.158333 605.543981,189.764568 605.543981,192.98 C605.543981,196.19595 603.317079,198.801666 600.572293,198.801666 Z M614.658742,200.464999 L611.344283,200.464999 C611.344283,198.627536 612.828021,197.138333 614.658742,197.138333 L614.658742,200.464999 Z M614.658742,188.821666 C612.828021,188.821666 611.344283,187.332463 611.344283,185.495 L614.658742,185.495 L614.658742,188.821666 Z" id="Shape" fill="#000000" fill-rule="nonzero"></path>
        </g>
    </g>
</svg>