<?xml version="1.0" encoding="UTF-8"?>
<svg width="300px" height="100px" viewBox="0 0 300 100" version="1.1" xmlns="http://www.w3.org/2000/svg" xmlns:xlink="http://www.w3.org/1999/xlink">
    <!-- Generator: Sketch 43.2 (39069) - http://www.bohemiancoding.com/sketch -->
    <title>Logo - Gotham Bold</title>
    <desc>Created with Sketch.</desc>
    <defs></defs>
    <g id="Page-1" stroke="none" stroke-width="1" fill="none" fill-rule="evenodd">
        <g id="Logo---Gotham-Bold" fill="#000000">
            <path d="M52.5635359,60.0096685 C52.5635359,68.1519337 45.4157459,72.8756906 35.781768,72.8756906 C26.1477901,72.8756906 19,67.9033149 19,60.2582873 C19,54.9129834 21.4240331,51.8052486 26.0234807,49.691989 C22.6671271,47.640884 20.4917127,44.8439227 20.4917127,40.1201657 C20.4917127,33.4074586 26.5828729,28.1243094 35.781768,28.1243094 C44.980663,28.1243094 51.0718232,33.4074586 51.0718232,40.1201657 C51.0718232,44.8439227 48.8964088,47.640884 45.5400552,49.691989 C49.9530387,51.9917127 52.5635359,54.788674 52.5635359,60.0096685 Z M41.9972376,41.1767956 C41.9972376,38.441989 39.6975138,36.0179558 35.781768,36.0179558 C31.8660221,36.0179558 29.5662983,38.3798343 29.5662983,41.1146409 C29.5662983,44.2223757 31.9903315,46.5220994 35.781768,46.5220994 C39.5732044,46.5220994 41.9972376,44.2845304 41.9972376,41.1767956 Z M43.3024862,59.5124309 C43.3024862,56.0939227 40.1325967,54.1049724 35.781768,54.1049724 C31.4309392,54.1049724 28.2610497,56.0939227 28.2610497,59.5124309 C28.2610497,62.6201657 31.058011,64.9820442 35.781768,64.9820442 C40.5055249,64.9820442 43.3024862,62.6201657 43.3024862,59.5124309 Z M95.0151934,43.9116022 C95.0151934,53.980663 87.1837017,59.2016575 77.4254144,59.2016575 L70.1533149,59.2016575 L70.1533149,72.2541436 L60.5814917,72.2541436 L60.5814917,28.7458564 L78.3577348,28.7458564 C88.7375691,28.7458564 95.0151934,34.8991713 95.0151934,43.7872928 L95.0151934,43.9116022 Z M85.3190608,44.0980663 L85.3190608,43.9737569 C85.3190608,39.6850829 82.3356354,37.3853591 77.5497238,37.3853591 L70.1533149,37.3853591 L70.1533149,50.6864641 L77.7361878,50.6864641 C82.5220994,50.6864641 85.3190608,47.8273481 85.3190608,44.0980663 Z M144.490331,72.2541436 L134.483425,72.2541436 L130.505525,62.4958564 L112.107735,62.4958564 L108.129834,72.2541436 L98.371547,72.2541436 L117.017956,28.4350829 L125.843923,28.4350829 L144.490331,72.2541436 Z M127.087017,54.0428177 L121.30663,39.9337017 L115.526243,54.0428177 L127.087017,54.0428177 Z M184.145028,37.5718232 L184.145028,28.7458564 L148.095304,28.7458564 L148.095304,37.5718232 L161.334254,37.5718232 L161.334254,72.2541436 L170.906077,72.2541436 L170.906077,37.5718232 L184.145028,37.5718232 Z M229.082873,72.2541436 L217.895028,72.2541436 L208.571823,58.3314917 L201.051105,58.3314917 L201.051105,72.2541436 L191.479282,72.2541436 L191.479282,28.7458564 L211.368785,28.7458564 C221.624309,28.7458564 227.777624,34.1533149 227.777624,43.1035912 L227.777624,43.2279006 C227.777624,50.2513812 223.986188,54.6643646 218.45442,56.7154696 L229.082873,72.2541436 Z M218.081492,43.7251381 L218.081492,43.6008287 C218.081492,39.4986188 215.222376,37.3853591 210.560773,37.3853591 L201.051105,37.3853591 L201.051105,49.878453 L210.747238,49.878453 C215.40884,49.878453 218.081492,47.3922652 218.081492,43.7251381 Z M280.733425,50.5 C280.733425,62.8687845 270.975138,73 257.549724,73 C244.124309,73 234.490331,62.9930939 234.490331,50.6243094 L234.490331,50.5 C234.490331,38.1312155 244.248619,28 257.674033,28 C271.099448,28 280.733425,38.0069061 280.733425,50.3756906 L280.733425,50.5 Z M270.726519,50.6243094 L270.726519,50.5 C270.726519,43.0414365 265.256906,36.8259669 257.549724,36.8259669 C249.842541,36.8259669 244.497238,42.9171271 244.497238,50.3756906 L244.497238,50.5 C244.497238,57.9585635 249.966851,64.1740331 257.674033,64.1740331 C265.381215,64.1740331 270.726519,58.0828729 270.726519,50.6243094 Z" id="8PATRO"></path>
        </g>
    </g>
</svg>