<?xml version="1.0" encoding="UTF-8"?>
<svg width="767px" height="420px" viewBox="0 0 767 420" version="1.1" xmlns="http://www.w3.org/2000/svg" xmlns:xlink="http://www.w3.org/1999/xlink">
    <!-- Generator: Sketch 43.2 (39069) - http://www.bohemiancoding.com/sketch -->
    <title>Group 2</title>
    <desc>Created with Sketch.</desc>
    <defs></defs>
    <g id="Page-1" stroke="none" stroke-width="1" fill="none" fill-rule="evenodd">
        <g id="Group-2" transform="translate(0.000000, -8.000000)">
            <g id="Group" transform="translate(35.000000, 112.000000)">
                <path d="M38.327,35.0006 L21.767,48.7776 L21.767,43.2686 L14.805,43.2686 L14.805,54.5706 L0,66.8866 L4.736,66.8866 L4.736,131.5386 L12.23,131.5386 L12.23,105.3766 L21.532,105.3766 L21.532,131.5386 L71.918,131.5386 L71.918,66.8866 L76.655,66.8866 L38.327,35.0006 Z M51.634,87.8716 L58.093,87.8716 L58.093,75.9856 L51.634,75.9856 L51.634,87.8716 Z M40.266,87.8716 L46.725,87.8716 L46.725,75.9856 L40.266,75.9856 L40.266,87.8716 Z M28.897,87.8716 L35.356,87.8716 L35.356,75.9856 L28.897,75.9856 L28.897,87.8716 Z M17.528,87.8716 L23.988,87.8716 L23.988,75.9856 L17.528,75.9856 L17.528,87.8716 Z M28.897,119.1376 L57.965,119.1376 L57.965,95.3646 L28.897,95.3646 L28.897,119.1376 Z" id="Page-1" fill="#000000"></path>
                <path d="M194.512022,116.495867 L202.867878,116.495867 L202.867878,82.1406743 L194.512022,82.1406743 L194.512022,116.495867 Z M177.798685,116.495867 L186.155354,116.495867 L186.155354,82.1406743 L177.798685,82.1406743 L177.798685,116.495867 Z M161.085349,116.495867 L169.442017,116.495867 L169.442017,82.1406743 L161.085349,82.1406743 L161.085349,116.495867 Z M214.010103,66.66455 L214.010103,58 L152,58 L152,66.66455 L152,131.041848 L213.993044,131.041848 L213.993044,105.362578 C213.993044,99.3747291 218.846849,94.5209239 224.834698,94.5209239 C230.822547,94.5209239 235.677165,99.3747291 235.677165,105.362578 L235.677165,131.041848 L247.241,131.041848 L247.241,66.66455 L214.010103,66.66455 Z" id="Page-1" fill="#5F5D5D"></path>
                <path d="M344.6497,0 L344.6497,11.591 L327.0597,11.591 L327.0597,18.476 L322.5857,18.476 L322.5857,33.412 L324.3887,33.412 L324.3887,131.285 L370.6727,131.285 L370.6727,33.412 L372.4757,33.412 L372.4757,18.476 L368.0017,18.476 L368.0017,11.591 L350.2187,11.591 L350.2187,0 L344.6497,0 Z M358.2977,53.821 L366.4927,53.821 L366.4927,39.839 L358.2977,39.839 L358.2977,53.821 Z M343.4327,53.821 L351.6277,53.821 L351.6277,39.839 L343.4327,39.839 L343.4327,53.821 Z M328.5687,53.821 L336.7637,53.821 L336.7637,39.839 L328.5687,39.839 L328.5687,53.821 Z M358.2977,74.071 L366.4927,74.071 L366.4927,60.089 L358.2977,60.089 L358.2977,74.071 Z M343.4327,74.071 L351.6277,74.071 L351.6277,60.089 L343.4327,60.089 L343.4327,74.071 Z M328.5687,74.071 L336.7637,74.071 L336.7637,60.089 L328.5687,60.089 L328.5687,74.071 Z M358.2977,94.32 L366.4927,94.32 L366.4927,80.338 L358.2977,80.338 L358.2977,94.32 Z M343.4327,94.32 L351.6277,94.32 L351.6277,80.338 L343.4327,80.338 L343.4327,94.32 Z M328.5687,94.32 L336.7637,94.32 L336.7637,80.338 L328.5687,80.338 L328.5687,94.32 Z M358.2977,114.569 L366.4927,114.569 L366.4927,100.588 L358.2977,100.588 L358.2977,114.569 Z M343.4327,114.569 L351.6277,114.569 L351.6277,100.588 L343.4327,100.588 L343.4327,114.569 Z M328.5687,114.569 L336.7637,114.569 L336.7637,100.588 L328.5687,100.588 L328.5687,114.569 Z" id="Page-1" fill="#5F5D5D"></path>
                <path d="M447.32765,80.4279573 L447.32765,90.2510198 L447.32765,99.1326865 L447.32765,108.281259 L447.32765,117.159884 L447.32765,130.613936 L460.944965,130.613936 L469.901187,130.613936 L483.518502,130.613936 L492.474724,130.613936 L506.09128,130.613936 L515.047502,130.613936 L528.664817,130.613936 L528.664817,80.4279573 L447.32765,80.4279573 Z M506.09128,99.1326865 L515.046743,99.1326865 L515.046743,90.2510198 L506.09128,90.2510198 L506.09128,99.1326865 Z M483.518502,99.1326865 L492.474724,99.1326865 L492.474724,90.2510198 L483.518502,90.2510198 L483.518502,99.1326865 Z M460.944965,99.1326865 L469.900428,99.1326865 L469.900428,90.2510198 L460.944965,90.2510198 L460.944965,99.1326865 Z M506.09128,117.159884 L515.046743,117.159884 L515.046743,108.281259 L506.09128,108.281259 L506.09128,117.159884 Z M483.518502,117.159884 L492.474724,117.159884 L492.474724,108.281259 L483.518502,108.281259 L483.518502,117.159884 Z M460.944965,117.159884 L469.900428,117.159884 L469.900428,108.281259 L460.944965,108.281259 L460.944965,117.159884 Z" id="Fill-1" fill="#5F5D5D"></path>
                <polygon id="Fill-2" fill="#5F5D5D" points="517.770433 58.0003042 517.770433 64.9102104 447.327878 64.9102104 447.327878 76.7902 528.665044 76.7902 528.665044 64.9102104 522.854433 64.9102104 522.854433 58.0003042"></polygon>
                <polygon id="Fill-1" fill="#5F5D5D" points="659.389933 91.5584805 659.389933 131.66225 666.361694 131.66225 666.361694 111.61125 689.560204 111.61125 689.560204 131.66225 698.246376 131.66225 698.246376 91.5584805"></polygon>
                <polygon id="Fill-2" fill="#5F5D5D" points="630.752635 46.0002654 604.179265 67.2623227 657.324236 67.2623227"></polygon>
                <polygon id="Fill-3" fill="#5F5D5D" points="616.819463 95.3180652 644.685276 95.3180652 644.685276 87.7987189 616.819463 87.7987189"></polygon>
                <path d="M615.050294,86.91409 C615.050294,86.4248901 615.445723,86.029461 615.934923,86.029461 L625.70565,86.029461 L625.70565,77.4043285 L635.657726,77.4043285 L635.657726,86.029461 L645.569993,86.029461 C646.058309,86.029461 646.454622,86.4248901 646.454622,86.91409 L646.454622,96.2026942 C646.454622,96.691894 646.058309,97.0873231 645.569993,97.0873231 L615.934923,97.0873231 C615.445723,97.0873231 615.050294,96.691894 615.050294,96.2026942 L615.050294,86.91409 Z M604.179088,131.662162 L625.212027,131.662162 L625.212027,104.82075 L636.292005,104.82075 L636.292005,131.662162 L657.324943,131.662162 L657.324943,69.4426678 L604.179088,69.4426678 L604.179088,131.662162 Z" id="Fill-4" fill="#5F5D5D"></path>
            </g>
            <path d="M766.500821,289 L157.492228,289" id="Line" stroke="#979797" stroke-linecap="square"></path>
            <path id="Line-decoration-1" d="M157.492228,289 L168.292228,292 L168.292228,286 L157.492228,289 Z" stroke="#979797" stroke-linecap="square"></path>
            <path d="M157.492228,289 L766.500821,289" id="Line" stroke="#979797" stroke-linecap="square"></path>
            <path id="Line-decoration-1" d="M766.500821,289 L755.700821,286 L755.700821,292 L766.500821,289 Z" stroke="#979797" stroke-linecap="square"></path>
            <path d="M1.31098354,289 L155.9123,289" id="Line" stroke="#979797" stroke-linecap="square"></path>
            <path id="Line-decoration-1" d="M155.9123,289 L145.1123,286 L145.1123,292 L155.9123,289 Z" stroke="#979797" stroke-linecap="square"></path>
            <text id="20%-financování-port" font-family="HelveticaNeue-Medium, Helvetica Neue" font-size="18" font-weight="400" fill="#000000">
                <tspan x="9.299" y="356">20% financování</tspan>
                <tspan x="43.985" y="378">portfolia</tspan>
            </text>
            <text id="8PATRO" font-family="HelveticaNeue-Medium, Helvetica Neue" font-size="28" font-weight="400" fill="#000000">
                <tspan x="23.242" y="427">8PATRO</tspan>
            </text>
            <text id="80%-financování-port" font-family="HelveticaNeue-Medium, Helvetica Neue" font-size="18" font-weight="400" fill="#000000">
                <tspan x="392.299" y="356">80% financování</tspan>
                <tspan x="426.985" y="378">portfolia</tspan>
            </text>
            <path d="M156.73146,289 L2.13014382,289" id="Line" stroke="#979797" stroke-linecap="square"></path>
            <path id="Line-decoration-1" d="M2.13014382,289 L12.9301438,292 L12.9301438,286 L2.13014382,289 Z" stroke="#979797" stroke-linecap="square"></path>
            <path d="M156.5,282.5 L156.5,300.5" id="Line" stroke="#979797" stroke-linecap="square"></path>
            <path d="M1,282.5 L1,300.5" id="Line" stroke="#979797" stroke-linecap="square"></path>
            <text id="INVESTOŘI" font-family="HelveticaNeue-Medium, Helvetica Neue" font-size="28" font-weight="400" fill="#000000">
                <tspan x="388.364" y="427">INVESTOŘI</tspan>
            </text>
            <text id="Jdeme-do-toho-s-Vámi" font-family="HelveticaNeue-Medium, Helvetica Neue" font-size="36" font-weight="400" fill="#000000">
                <tspan x="199.452" y="35">Jdeme do toho s Vámi</tspan>
            </text>
        </g>
    </g>
</svg>